<?xml version="1.0" encoding="UTF-8"?>
<svg xmlns="http://www.w3.org/2000/svg" xmlns:xlink="http://www.w3.org/1999/xlink" width="612pt" height="378pt" viewBox="0 0 612 378" version="1.1">
<defs>
<clipPath id="clip1">
  <path d="M 2.738281 26.699219 L 613 26.699219 L 613 349.558594 L 2.738281 349.558594 Z M 2.738281 26.699219 "/>
</clipPath>
</defs>
<g id="surface693">
<rect x="0" y="0" width="612" height="378" style="fill:rgb(100%,100%,100%);fill-opacity:1;stroke:none;"/>
<g clip-path="url(#clip1)" clip-rule="nonzero">
<path style=" stroke:none;fill-rule:nonzero;fill:rgb(97.254902%,46.27451%,42.745098%);fill-opacity:1;" d="M 393.316406 282.121094 L 383.765625 282.121094 L 383.765625 271.035156 L 383.765625 282.121094 L 383.765625 225.472656 L 402.863281 225.472656 L 407.640625 231.285156 L 412.414063 237.0625 L 412.414063 271.035156 L 383.765625 271.035156 L 393.316406 271.035156 Z M 393.316406 282.121094 "/>
<path style=" stroke:none;fill-rule:nonzero;fill:rgb(95.686275%,47.843137%,36.470588%);fill-opacity:1;" d="M 125.929688 225.472656 L 125.929688 213.742188 L 135.476563 213.742188 L 135.476563 201.863281 L 183.226563 201.863281 L 183.226563 271.035156 L 164.125 271.035156 L 159.351563 265.453125 L 154.578125 259.835938 L 125.929688 259.835938 L 125.929688 248.511719 L 135.476563 248.511719 L 125.929688 248.511719 L 125.929688 237.0625 L 135.476563 237.0625 L 135.476563 225.472656 Z M 125.929688 225.472656 "/>
<path style=" stroke:none;fill-rule:nonzero;fill:rgb(94.117647%,49.411765%,29.411765%);fill-opacity:1;" d="M 326.46875 248.511719 L 326.46875 213.742188 L 316.917969 213.742188 L 316.917969 201.863281 L 326.46875 201.863281 L 326.46875 213.742188 L 326.46875 201.863281 L 326.46875 213.742188 L 326.46875 201.863281 L 326.46875 213.742188 L 331.242188 207.820313 L 336.019531 201.863281 L 336.019531 213.742188 L 336.019531 201.863281 L 336.019531 213.742188 L 336.019531 201.863281 L 340.792969 207.820313 L 345.566406 213.742188 L 345.566406 201.863281 L 350.34375 207.820313 L 355.117188 213.742188 L 355.117188 201.863281 L 364.667969 201.863281 L 364.667969 225.472656 L 355.117188 225.472656 L 364.667969 225.472656 L 355.117188 225.472656 L 355.117188 248.511719 L 355.117188 237.0625 L 355.117188 248.511719 Z M 326.46875 248.511719 "/>
<path style=" stroke:none;fill-rule:nonzero;fill:rgb(92.156863%,51.372549%,20.784314%);fill-opacity:1;" d="M 78.179688 139.9375 L 78.179688 177.625 L 87.730469 177.625 L 87.730469 189.824219 L 97.28125 189.824219 L 97.28125 201.863281 L 106.828125 201.863281 L 111.605469 207.820313 L 116.378906 213.742188 L 121.152344 219.625 L 125.929688 225.472656 L 135.476563 225.472656 L 135.476563 237.0625 L 125.929688 237.0625 L 125.929688 248.511719 L 135.476563 248.511719 L 97.28125 248.511719 L 97.28125 237.0625 L 78.179688 237.0625 L 78.179688 225.472656 L 68.632813 225.472656 L 68.632813 213.742188 L 59.082031 213.742188 L 59.082031 189.824219 L 59.082031 201.863281 L 59.082031 189.824219 L 49.53125 189.824219 L 49.53125 177.625 L 39.984375 177.625 L 39.984375 139.9375 Z M 78.179688 139.9375 "/>
<path style=" stroke:none;fill-rule:nonzero;fill:rgb(90.196078%,52.941176%,5.490196%);fill-opacity:1;" d="M 250.074219 165.246094 L 250.074219 201.863281 L 183.226563 201.863281 L 183.226563 152.6875 L 250.074219 152.6875 Z M 250.074219 165.246094 "/>
<path style=" stroke:none;fill-rule:nonzero;fill:rgb(87.843137%,54.509804%,0%);fill-opacity:1;" d="M 527.007813 139.9375 L 536.558594 139.9375 L 536.558594 152.6875 L 517.460938 152.6875 L 527.007813 152.6875 L 517.460938 152.6875 L 517.460938 139.9375 Z M 527.007813 139.9375 "/>
<path style=" stroke:none;fill-rule:nonzero;fill:rgb(85.490196%,56.078431%,0%);fill-opacity:1;" d="M 498.359375 165.246094 L 507.910156 165.246094 L 498.359375 165.246094 L 498.359375 177.625 L 507.910156 177.625 L 507.910156 189.824219 L 498.359375 189.824219 Z M 498.359375 165.246094 "/>
<path style=" stroke:none;fill-rule:nonzero;fill:rgb(80%,58.823529%,0%);fill-opacity:1;" d="M 412.414063 271.035156 L 441.0625 271.035156 L 441.0625 282.121094 L 441.0625 271.035156 L 450.613281 271.035156 L 450.613281 303.957031 L 460.164063 303.957031 L 460.164063 335.976563 L 450.613281 335.976563 L 450.613281 325.394531 L 441.0625 325.394531 L 441.0625 314.726563 L 431.515625 314.726563 L 431.515625 303.957031 L 441.0625 303.957031 L 431.515625 303.957031 L 431.515625 282.121094 L 402.863281 282.121094 L 412.414063 282.121094 L 393.316406 282.121094 L 402.863281 282.121094 L 402.863281 271.035156 L 402.863281 282.121094 L 402.863281 271.035156 L 402.863281 282.121094 L 402.863281 271.035156 L 393.316406 271.035156 L 393.316406 282.121094 L 393.316406 271.035156 L 393.316406 282.121094 L 393.316406 271.035156 L 393.316406 282.121094 L 383.765625 282.121094 L 393.316406 282.121094 L 393.316406 271.035156 L 383.765625 271.035156 Z M 412.414063 271.035156 "/>
<path style=" stroke:none;fill-rule:nonzero;fill:rgb(76.862745%,60.392157%,0%);fill-opacity:1;" d="M 450.613281 259.835938 L 450.613281 271.035156 L 441.0625 271.035156 L 450.613281 271.035156 L 441.0625 271.035156 L 450.613281 271.035156 L 441.0625 271.035156 L 450.613281 271.035156 L 441.0625 271.035156 L 441.0625 282.121094 L 441.0625 271.035156 L 412.414063 271.035156 L 412.414063 237.0625 L 407.640625 231.285156 L 402.863281 225.472656 L 431.515625 225.472656 L 431.515625 237.0625 L 441.0625 237.0625 L 441.0625 248.511719 L 450.613281 248.511719 Z M 450.613281 259.835938 "/>
<path style=" stroke:none;fill-rule:nonzero;fill:rgb(73.72549%,61.568627%,0%);fill-opacity:1;" d="M 106.828125 139.9375 L 106.828125 86.804688 L 116.378906 86.804688 L 106.828125 86.804688 L 106.828125 44.382813 L 116.378906 44.382813 L 116.378906 72.929688 L 135.476563 72.929688 L 135.476563 86.804688 L 125.929688 86.804688 L 135.476563 86.804688 L 125.929688 86.804688 L 135.476563 86.804688 L 125.929688 86.804688 L 135.476563 86.804688 L 135.476563 100.429688 L 135.476563 86.804688 L 135.476563 100.429688 L 145.027344 100.429688 L 145.027344 113.820313 L 145.027344 100.429688 L 149.800781 107.152344 L 154.578125 113.820313 L 154.578125 100.429688 L 164.125 100.429688 L 154.578125 100.429688 L 164.125 100.429688 L 164.125 139.9375 Z M 106.828125 139.9375 "/>
<path style=" stroke:none;fill-rule:nonzero;fill:rgb(70.196078%,62.745098%,0%);fill-opacity:1;" d="M 355.117188 126.984375 L 374.214844 126.984375 L 374.214844 139.9375 L 374.214844 126.984375 L 383.765625 126.984375 L 383.765625 177.625 L 393.316406 177.625 L 383.765625 177.625 L 383.765625 201.863281 L 374.214844 201.863281 L 383.765625 201.863281 L 364.667969 201.863281 L 374.214844 201.863281 L 369.441406 195.863281 L 364.667969 189.824219 L 364.667969 177.625 L 355.117188 177.625 L 355.117188 165.246094 L 345.566406 165.246094 L 355.117188 165.246094 L 355.117188 139.9375 L 364.667969 139.9375 L 355.117188 139.9375 Z M 355.117188 126.984375 "/>
<path style=" stroke:none;fill-rule:nonzero;fill:rgb(66.27451%,64.313725%,0%);fill-opacity:1;" d="M 383.765625 189.824219 L 383.765625 177.625 L 393.316406 177.625 L 383.765625 177.625 L 383.765625 139.9375 L 412.414063 139.9375 L 412.414063 177.625 L 407.640625 183.746094 L 402.863281 189.824219 Z M 383.765625 189.824219 "/>
<path style=" stroke:none;fill-rule:nonzero;fill:rgb(61.960784%,65.490196%,0%);fill-opacity:1;" d="M 355.117188 126.984375 L 355.117188 139.9375 L 364.667969 139.9375 L 355.117188 139.9375 L 355.117188 165.246094 L 345.566406 165.246094 L 345.566406 152.6875 L 307.371094 152.6875 L 307.371094 126.984375 L 297.820313 126.984375 L 307.371094 126.984375 L 297.820313 126.984375 L 307.371094 126.984375 L 297.820313 126.984375 L 307.371094 126.984375 L 307.371094 113.820313 L 345.566406 113.820313 L 350.34375 120.429688 Z M 355.117188 126.984375 "/>
<path style=" stroke:none;fill-rule:nonzero;fill:rgb(57.647059%,66.666667%,0%);fill-opacity:1;" d="M 316.917969 201.863281 L 250.074219 201.863281 L 250.074219 165.246094 L 316.917969 165.246094 Z M 316.917969 201.863281 "/>
<path style=" stroke:none;fill-rule:nonzero;fill:rgb(52.54902%,67.45098%,0%);fill-opacity:1;" d="M 431.515625 189.824219 L 441.0625 189.824219 L 441.0625 201.863281 L 374.214844 201.863281 L 374.214844 213.742188 L 374.214844 201.863281 L 383.765625 201.863281 L 374.214844 201.863281 L 383.765625 201.863281 L 383.765625 189.824219 L 402.863281 189.824219 L 407.640625 183.746094 L 412.414063 177.625 L 431.515625 177.625 Z M 431.515625 189.824219 "/>
<path style=" stroke:none;fill-rule:nonzero;fill:rgb(47.058824%,68.627451%,0%);fill-opacity:1;" d="M 326.46875 248.511719 L 355.117188 248.511719 L 355.117188 259.835938 L 355.117188 248.511719 L 355.117188 259.835938 L 345.566406 259.835938 L 355.117188 259.835938 L 345.566406 259.835938 L 345.566406 271.035156 L 355.117188 271.035156 L 345.566406 271.035156 L 364.667969 271.035156 L 364.667969 282.121094 L 374.214844 282.121094 L 364.667969 282.121094 L 364.667969 293.09375 L 374.214844 293.09375 L 364.667969 293.09375 L 364.667969 282.121094 L 364.667969 293.09375 L 355.117188 293.09375 L 355.117188 282.121094 L 326.46875 282.121094 Z M 326.46875 248.511719 "/>
<path style=" stroke:none;fill-rule:nonzero;fill:rgb(40.392157%,69.411765%,0%);fill-opacity:1;" d="M 546.109375 126.984375 L 546.109375 86.804688 L 555.65625 86.804688 L 555.65625 72.929688 L 574.757813 72.929688 L 574.757813 86.804688 L 584.304688 86.804688 L 584.304688 100.429688 L 574.757813 100.429688 L 574.757813 113.820313 L 574.757813 100.429688 L 574.757813 113.820313 L 574.757813 100.429688 L 574.757813 113.820313 L 565.207031 113.820313 L 565.207031 100.429688 L 565.207031 113.820313 L 555.65625 113.820313 L 555.65625 126.984375 Z M 546.109375 126.984375 "/>
<path style=" stroke:none;fill-rule:nonzero;fill:rgb(32.54902%,70.588235%,0%);fill-opacity:1;" d="M 479.261719 177.625 L 479.261719 165.246094 L 469.710938 165.246094 L 469.710938 177.625 L 469.710938 165.246094 L 498.359375 165.246094 L 498.359375 189.824219 L 507.910156 189.824219 L 498.359375 189.824219 L 498.359375 165.246094 L 498.359375 177.625 L 498.359375 165.246094 L 498.359375 177.625 L 488.8125 177.625 L 498.359375 177.625 L 488.8125 177.625 L 498.359375 177.625 L 488.8125 177.625 L 498.359375 177.625 L 488.8125 177.625 L 488.8125 189.824219 L 498.359375 189.824219 L 488.8125 189.824219 L 498.359375 189.824219 L 488.8125 189.824219 L 488.8125 177.625 L 479.261719 177.625 L 488.8125 177.625 Z M 479.261719 177.625 "/>
<path style=" stroke:none;fill-rule:nonzero;fill:rgb(21.176471%,71.372549%,0%);fill-opacity:1;" d="M 555.65625 152.6875 L 546.109375 152.6875 Z M 555.65625 152.6875 "/>
<path style=" stroke:none;fill-rule:nonzero;fill:rgb(0%,72.156863%,9.411765%);fill-opacity:1;" d="M 527.007813 139.9375 L 517.460938 139.9375 L 527.007813 139.9375 L 527.007813 126.984375 L 546.109375 126.984375 L 546.109375 139.9375 L 555.65625 139.9375 L 546.109375 139.9375 L 546.109375 152.6875 L 546.109375 139.9375 Z M 527.007813 139.9375 "/>
<path style=" stroke:none;fill-rule:nonzero;fill:rgb(0%,73.333333%,30.196078%);fill-opacity:1;" d="M 364.667969 72.929688 L 393.316406 72.929688 L 393.316406 86.804688 L 393.316406 72.929688 L 393.316406 86.804688 L 393.316406 72.929688 L 412.414063 72.929688 L 412.414063 86.804688 L 421.964844 86.804688 L 393.316406 86.804688 L 393.316406 100.429688 L 383.765625 100.429688 L 383.765625 86.804688 L 364.667969 86.804688 Z M 364.667969 72.929688 "/>
<path style=" stroke:none;fill-rule:nonzero;fill:rgb(0%,74.117647%,36.862745%);fill-opacity:1;" d="M 431.515625 139.9375 L 393.316406 139.9375 L 402.863281 139.9375 L 402.863281 113.820313 L 393.316406 113.820313 L 402.863281 113.820313 L 393.316406 113.820313 L 402.863281 113.820313 L 402.863281 100.429688 L 412.414063 100.429688 L 402.863281 100.429688 L 412.414063 100.429688 L 412.414063 86.804688 L 421.964844 86.804688 L 421.964844 100.429688 L 421.964844 86.804688 L 421.964844 100.429688 L 431.515625 100.429688 L 431.515625 113.820313 L 421.964844 113.820313 L 431.515625 113.820313 L 431.515625 126.984375 L 441.0625 126.984375 L 431.515625 126.984375 Z M 431.515625 139.9375 "/>
<path style=" stroke:none;fill-rule:nonzero;fill:rgb(0%,74.509804%,42.745098%);fill-opacity:1;" d="M 307.371094 126.984375 L 307.371094 100.429688 L 297.820313 100.429688 L 297.820313 44.382813 L 336.019531 44.382813 L 336.019531 58.796875 L 374.214844 58.796875 L 355.117188 58.796875 L 355.117188 72.929688 L 345.566406 72.929688 L 345.566406 86.804688 L 336.019531 86.804688 L 336.019531 100.429688 L 345.566406 100.429688 L 345.566406 113.820313 L 355.117188 113.820313 L 355.117188 126.984375 L 350.34375 120.429688 L 345.566406 113.820313 L 307.371094 113.820313 Z M 307.371094 126.984375 "/>
<path style=" stroke:none;fill-rule:nonzero;fill:rgb(0%,74.901961%,48.235294%);fill-opacity:1;" d="M 383.765625 225.472656 L 383.765625 282.121094 L 364.667969 282.121094 L 364.667969 271.035156 L 345.566406 271.035156 L 355.117188 271.035156 L 345.566406 271.035156 L 345.566406 259.835938 L 355.117188 259.835938 L 345.566406 259.835938 L 355.117188 259.835938 L 355.117188 248.511719 L 355.117188 259.835938 L 355.117188 237.0625 L 355.117188 248.511719 L 355.117188 225.472656 L 364.667969 225.472656 L 355.117188 225.472656 Z M 383.765625 225.472656 "/>
<path style=" stroke:none;fill-rule:nonzero;fill:rgb(0%,75.294118%,53.333333%);fill-opacity:1;" d="M 307.371094 152.6875 L 345.566406 152.6875 L 345.566406 165.246094 L 355.117188 165.246094 L 345.566406 165.246094 L 355.117188 165.246094 L 355.117188 177.625 L 364.667969 177.625 L 364.667969 189.824219 L 369.441406 195.863281 L 374.214844 201.863281 L 364.667969 201.863281 L 374.214844 201.863281 L 374.214844 213.742188 L 374.214844 201.863281 L 364.667969 201.863281 L 364.667969 213.742188 L 364.667969 201.863281 L 355.117188 201.863281 L 355.117188 213.742188 L 350.34375 207.820313 L 345.566406 201.863281 L 345.566406 213.742188 L 340.792969 207.820313 L 336.019531 201.863281 L 336.019531 213.742188 L 336.019531 201.863281 L 336.019531 213.742188 L 336.019531 201.863281 L 331.242188 207.820313 L 326.46875 213.742188 L 326.46875 201.863281 L 326.46875 213.742188 L 326.46875 201.863281 L 326.46875 213.742188 L 326.46875 201.863281 L 316.917969 201.863281 L 316.917969 165.246094 L 307.371094 165.246094 Z M 307.371094 152.6875 "/>
<path style=" stroke:none;fill-rule:nonzero;fill:rgb(0%,75.294118%,58.039216%);fill-opacity:1;" d="M 230.972656 44.382813 L 230.972656 100.429688 L 164.125 100.429688 L 164.125 113.820313 L 164.125 100.429688 L 154.578125 100.429688 L 164.125 100.429688 L 154.578125 100.429688 L 154.578125 113.820313 L 149.800781 107.152344 L 145.027344 100.429688 L 145.027344 113.820313 L 145.027344 100.429688 L 135.476563 100.429688 L 135.476563 86.804688 L 135.476563 100.429688 L 135.476563 86.804688 L 125.929688 86.804688 L 135.476563 86.804688 L 125.929688 86.804688 L 135.476563 86.804688 L 125.929688 86.804688 L 135.476563 86.804688 L 135.476563 72.929688 L 116.378906 72.929688 L 116.378906 44.382813 Z M 230.972656 44.382813 "/>
<path style=" stroke:none;fill-rule:nonzero;fill:rgb(0%,75.686275%,62.352941%);fill-opacity:1;" d="M 230.972656 126.984375 L 297.820313 126.984375 L 297.820313 139.9375 L 307.371094 139.9375 L 307.371094 165.246094 L 316.917969 165.246094 L 250.074219 165.246094 L 250.074219 152.6875 L 230.972656 152.6875 Z M 230.972656 126.984375 "/>
<path style=" stroke:none;fill-rule:nonzero;fill:rgb(0%,75.686275%,67.058824%);fill-opacity:1;" d="M 135.476563 201.863281 L 135.476563 213.742188 L 125.929688 213.742188 L 125.929688 225.472656 L 121.152344 219.625 L 116.378906 213.742188 L 111.605469 207.820313 L 106.828125 201.863281 L 97.28125 201.863281 L 97.28125 189.824219 L 87.730469 189.824219 L 87.730469 177.625 L 78.179688 177.625 L 78.179688 139.9375 L 135.476563 139.9375 Z M 135.476563 201.863281 "/>
<path style=" stroke:none;fill-rule:nonzero;fill:rgb(0%,75.294118%,70.980392%);fill-opacity:1;" d="M 536.558594 126.984375 L 527.007813 126.984375 L 536.558594 126.984375 L 536.558594 100.429688 L 546.109375 100.429688 L 546.109375 126.984375 Z M 536.558594 126.984375 "/>
<path style=" stroke:none;fill-rule:nonzero;fill:rgb(0%,75.294118%,74.901961%);fill-opacity:1;" d="M 507.910156 152.6875 L 517.460938 152.6875 L 517.460938 177.625 L 498.359375 177.625 L 498.359375 165.246094 L 507.910156 165.246094 Z M 507.910156 152.6875 "/>
<path style=" stroke:none;fill-rule:nonzero;fill:rgb(0%,74.509804%,78.823529%);fill-opacity:1;" d="M 240.523438 201.863281 L 240.523438 259.835938 L 192.777344 259.835938 L 192.777344 271.035156 L 183.226563 271.035156 L 183.226563 201.863281 Z M 240.523438 201.863281 "/>
<path style=" stroke:none;fill-rule:nonzero;fill:rgb(0%,73.333333%,85.882353%);fill-opacity:1;" d="M 460.164063 139.9375 L 469.710938 139.9375 L 469.710938 126.984375 L 498.359375 126.984375 L 498.359375 100.429688 L 527.007813 100.429688 L 527.007813 139.9375 L 517.460938 139.9375 L 527.007813 139.9375 L 517.460938 139.9375 L 517.460938 152.6875 L 527.007813 152.6875 L 507.910156 152.6875 L 507.910156 139.9375 Z M 460.164063 139.9375 "/>
<path style=" stroke:none;fill-rule:nonzero;fill:rgb(0%,72.54902%,89.019608%);fill-opacity:1;" d="M 517.460938 165.246094 L 517.460938 152.6875 L 517.460938 165.246094 L 517.460938 152.6875 Z M 517.460938 165.246094 "/>
<path style=" stroke:none;fill-rule:nonzero;fill:rgb(0%,71.372549%,92.156863%);fill-opacity:1;" d="M 536.558594 152.6875 L 517.460938 152.6875 L 536.558594 152.6875 L 527.007813 152.6875 Z M 536.558594 152.6875 "/>
<path style=" stroke:none;fill-rule:nonzero;fill:rgb(0%,70.196078%,94.901961%);fill-opacity:1;" d="M 498.359375 201.863281 L 498.359375 213.742188 Z M 498.359375 201.863281 "/>
<path style=" stroke:none;fill-rule:nonzero;fill:rgb(0%,68.627451%,97.254902%);fill-opacity:1;" d="M 469.710938 237.0625 L 469.710938 225.472656 L 421.964844 225.472656 L 421.964844 213.742188 L 441.0625 213.742188 L 441.0625 201.863281 L 498.359375 201.863281 L 498.359375 213.742188 L 488.8125 213.742188 L 498.359375 213.742188 L 498.359375 225.472656 L 488.8125 225.472656 L 493.585938 219.625 L 498.359375 213.742188 L 488.8125 213.742188 L 488.8125 225.472656 L 488.8125 213.742188 L 488.8125 225.472656 L 498.359375 225.472656 L 488.8125 225.472656 L 498.359375 225.472656 L 488.8125 225.472656 L 488.8125 237.0625 Z M 469.710938 237.0625 "/>
<path style=" stroke:none;fill-rule:nonzero;fill:rgb(0%,67.058824%,99.215686%);fill-opacity:1;" d="M 498.359375 201.863281 L 498.359375 213.742188 Z M 498.359375 201.863281 "/>
<path style=" stroke:none;fill-rule:nonzero;fill:rgb(0%,65.098039%,100%);fill-opacity:1;" d="M 230.972656 86.804688 L 230.972656 44.382813 L 297.820313 44.382813 L 297.820313 86.804688 Z M 230.972656 86.804688 "/>
<path style=" stroke:none;fill-rule:nonzero;fill:rgb(21.960784%,63.137255%,100%);fill-opacity:1;" d="M 450.613281 152.6875 L 450.613281 177.625 L 441.0625 177.625 L 441.0625 189.824219 L 431.515625 189.824219 L 431.515625 177.625 L 412.414063 177.625 L 412.414063 139.9375 L 431.515625 139.9375 L 431.515625 152.6875 L 441.0625 152.6875 L 441.0625 139.9375 L 441.0625 152.6875 L 441.0625 139.9375 L 450.613281 139.9375 Z M 450.613281 152.6875 "/>
<path style=" stroke:none;fill-rule:nonzero;fill:rgb(38.039216%,61.176471%,100%);fill-opacity:1;" d="M 250.074219 201.863281 L 316.917969 201.863281 L 316.917969 213.742188 L 326.46875 213.742188 L 326.46875 237.0625 L 269.171875 237.0625 L 269.171875 213.742188 L 240.523438 213.742188 L 240.523438 201.863281 Z M 250.074219 201.863281 "/>
<path style=" stroke:none;fill-rule:nonzero;fill:rgb(49.019608%,58.823529%,100%);fill-opacity:1;" d="M 106.828125 86.804688 L 116.378906 86.804688 L 106.828125 86.804688 L 106.828125 139.9375 L 39.984375 139.9375 L 39.984375 126.984375 L 30.433594 126.984375 L 39.984375 126.984375 L 39.984375 86.804688 L 39.984375 100.429688 L 39.984375 86.804688 Z M 106.828125 86.804688 "/>
<path style=" stroke:none;fill-rule:nonzero;fill:rgb(57.647059%,56.470588%,100%);fill-opacity:1;" d="M 460.164063 139.9375 L 507.910156 139.9375 L 507.910156 165.246094 L 450.613281 165.246094 L 450.613281 139.9375 Z M 460.164063 139.9375 "/>
<path style=" stroke:none;fill-rule:nonzero;fill:rgb(64.705882%,54.117647%,100%);fill-opacity:1;" d="M 536.558594 152.6875 L 536.558594 139.9375 L 546.109375 139.9375 L 546.109375 152.6875 L 546.109375 139.9375 L 546.109375 152.6875 L 546.109375 139.9375 L 546.109375 152.6875 L 536.558594 152.6875 L 546.109375 152.6875 Z M 536.558594 152.6875 "/>
<path style=" stroke:none;fill-rule:nonzero;fill:rgb(71.372549%,51.764706%,100%);fill-opacity:1;" d="M 431.515625 225.472656 L 469.710938 225.472656 L 469.710938 248.511719 L 460.164063 248.511719 L 460.164063 259.835938 L 460.164063 248.511719 L 460.164063 259.835938 L 460.164063 248.511719 L 450.613281 248.511719 L 450.613281 259.835938 L 460.164063 259.835938 L 450.613281 259.835938 L 450.613281 248.511719 L 441.0625 248.511719 L 441.0625 237.0625 L 431.515625 237.0625 Z M 431.515625 225.472656 "/>
<path style=" stroke:none;fill-rule:nonzero;fill:rgb(76.862745%,49.411765%,100%);fill-opacity:1;" d="M 307.371094 139.9375 L 297.820313 139.9375 L 297.820313 126.984375 L 230.972656 126.984375 L 230.972656 86.804688 L 297.820313 86.804688 L 297.820313 100.429688 L 307.371094 100.429688 L 307.371094 126.984375 L 297.820313 126.984375 L 307.371094 126.984375 L 297.820313 126.984375 L 307.371094 126.984375 L 297.820313 126.984375 L 307.371094 126.984375 Z M 307.371094 139.9375 "/>
<path style=" stroke:none;fill-rule:nonzero;fill:rgb(81.568627%,47.058824%,100%);fill-opacity:1;" d="M 364.667969 213.742188 L 364.667969 201.863281 L 374.214844 201.863281 L 374.214844 213.742188 L 374.214844 201.863281 L 374.214844 213.742188 L 374.214844 201.863281 L 441.0625 201.863281 L 441.0625 213.742188 L 421.964844 213.742188 L 421.964844 225.472656 L 364.667969 225.472656 Z M 364.667969 213.742188 "/>
<path style=" stroke:none;fill-rule:nonzero;fill:rgb(85.882353%,44.705882%,98.431373%);fill-opacity:1;" d="M 326.46875 237.0625 L 326.46875 282.121094 L 316.917969 282.121094 L 316.917969 293.09375 L 316.917969 282.121094 L 316.917969 293.09375 L 307.371094 293.09375 L 307.371094 303.957031 L 307.371094 293.09375 L 297.820313 293.09375 L 307.371094 293.09375 L 297.820313 293.09375 L 297.820313 303.957031 L 297.820313 293.09375 L 307.371094 293.09375 L 307.371094 303.957031 L 297.820313 303.957031 L 297.820313 293.09375 L 297.820313 303.957031 L 288.269531 303.957031 L 297.820313 303.957031 L 297.820313 314.726563 L 288.269531 314.726563 L 297.820313 314.726563 L 288.269531 314.726563 L 297.820313 314.726563 L 288.269531 314.726563 L 297.820313 314.726563 L 297.820313 325.394531 L 278.722656 325.394531 L 278.722656 314.726563 L 269.171875 314.726563 L 273.945313 309.355469 L 278.722656 303.957031 L 269.171875 303.957031 L 269.171875 293.09375 L 259.621094 293.09375 L 259.621094 282.121094 L 240.523438 282.121094 L 240.523438 293.09375 L 230.972656 293.09375 L 230.972656 282.121094 L 221.425781 282.121094 L 221.425781 271.035156 L 211.875 271.035156 L 211.875 259.835938 L 202.324219 259.835938 L 240.523438 259.835938 L 240.523438 213.742188 L 269.171875 213.742188 L 269.171875 237.0625 Z M 326.46875 237.0625 "/>
<path style=" stroke:none;fill-rule:nonzero;fill:rgb(89.411765%,42.745098%,96.078431%);fill-opacity:1;" d="M 135.476563 139.9375 L 164.125 139.9375 L 164.125 152.6875 L 183.226563 152.6875 L 183.226563 201.863281 L 135.476563 201.863281 Z M 135.476563 139.9375 "/>
<path style=" stroke:none;fill-rule:nonzero;fill:rgb(92.54902%,41.176471%,93.72549%);fill-opacity:1;" d="M 527.007813 100.429688 L 536.558594 100.429688 L 536.558594 126.984375 L 527.007813 126.984375 L 536.558594 126.984375 L 527.007813 126.984375 Z M 527.007813 100.429688 "/>
<path style=" stroke:none;fill-rule:nonzero;fill:rgb(94.901961%,39.607843%,90.588235%);fill-opacity:1;" d="M 498.359375 189.824219 L 507.910156 189.824219 L 498.359375 189.824219 L 498.359375 201.863281 Z M 498.359375 189.824219 "/>
<path style=" stroke:none;fill-rule:nonzero;fill:rgb(98.431373%,38.039216%,84.313725%);fill-opacity:1;" d="M 479.261719 177.625 L 488.8125 177.625 L 479.261719 177.625 L 488.8125 177.625 L 488.8125 189.824219 L 498.359375 189.824219 L 488.8125 189.824219 L 498.359375 189.824219 L 498.359375 201.863281 L 488.8125 201.863281 L 488.8125 189.824219 L 488.8125 201.863281 L 498.359375 201.863281 L 488.8125 201.863281 L 498.359375 201.863281 L 421.964844 201.863281 L 441.0625 201.863281 L 441.0625 189.824219 L 441.0625 201.863281 L 460.164063 201.863281 L 460.164063 177.625 L 460.164063 189.824219 L 469.710938 189.824219 L 469.710938 177.625 Z M 479.261719 177.625 "/>
<path style=" stroke:none;fill-rule:nonzero;fill:rgb(99.607843%,38.039216%,80.392157%);fill-opacity:1;" d="M 49.53125 44.382813 L 49.53125 58.796875 Z M 49.53125 44.382813 "/>
<path style=" stroke:none;fill-rule:nonzero;fill:rgb(100%,38.039216%,76.470588%);fill-opacity:1;" d="M 49.53125 58.796875 L 49.53125 44.382813 Z M 49.53125 58.796875 "/>
<path style=" stroke:none;fill-rule:nonzero;fill:rgb(100%,39.607843%,67.843137%);fill-opacity:1;" d="M 49.53125 58.796875 L 59.082031 58.796875 L 49.53125 58.796875 L 59.082031 58.796875 L 49.53125 58.796875 L 59.082031 58.796875 Z M 49.53125 58.796875 "/>
<path style=" stroke:none;fill-rule:nonzero;fill:rgb(100%,40.784314%,63.529412%);fill-opacity:1;" d="M 106.828125 86.804688 L 39.984375 86.804688 L 39.984375 72.929688 L 39.984375 86.804688 L 39.984375 58.796875 L 30.433594 58.796875 L 49.53125 58.796875 L 49.53125 72.929688 L 49.53125 58.796875 L 59.082031 58.796875 L 49.53125 58.796875 L 59.082031 58.796875 L 59.082031 72.929688 L 49.53125 72.929688 L 59.082031 72.929688 L 59.082031 58.796875 L 49.53125 58.796875 L 49.53125 44.382813 L 49.53125 58.796875 L 59.082031 58.796875 L 59.082031 44.382813 L 49.53125 44.382813 L 106.828125 44.382813 Z M 106.828125 86.804688 "/>
<path style=" stroke:none;fill-rule:nonzero;fill:rgb(100%,41.960784%,58.823529%);fill-opacity:1;" d="M 469.710938 165.246094 L 469.710938 177.625 L 469.710938 165.246094 L 479.261719 165.246094 L 479.261719 177.625 L 469.710938 177.625 L 469.710938 189.824219 L 460.164063 189.824219 L 460.164063 177.625 L 460.164063 201.863281 L 441.0625 201.863281 L 441.0625 189.824219 L 431.515625 189.824219 L 441.0625 189.824219 L 441.0625 177.625 L 450.613281 177.625 L 450.613281 152.6875 L 450.613281 165.246094 Z M 469.710938 165.246094 "/>
<path style=" stroke:none;fill-rule:nonzero;fill:rgb(99.607843%,43.137255%,53.72549%);fill-opacity:1;" d="M 383.765625 126.984375 L 374.214844 126.984375 L 374.214844 139.9375 L 374.214844 126.984375 L 355.117188 126.984375 L 355.117188 113.820313 L 345.566406 113.820313 L 345.566406 100.429688 L 336.019531 100.429688 L 336.019531 86.804688 L 345.566406 86.804688 L 345.566406 72.929688 L 364.667969 72.929688 L 364.667969 86.804688 L 383.765625 86.804688 L 383.765625 100.429688 L 393.316406 100.429688 L 393.316406 113.820313 L 383.765625 113.820313 L 393.316406 113.820313 L 383.765625 113.820313 Z M 383.765625 126.984375 "/>
<path style=" stroke:none;fill-rule:nonzero;fill:rgb(98.431373%,44.705882%,48.235294%);fill-opacity:1;" d="M 183.226563 152.6875 L 164.125 152.6875 L 164.125 100.429688 L 230.972656 100.429688 L 230.972656 152.6875 Z M 183.226563 152.6875 "/>
</g>
</g>
</svg>
