<?xml version="1.0" encoding="UTF-8"?>
<svg xmlns="http://www.w3.org/2000/svg" xmlns:xlink="http://www.w3.org/1999/xlink" width="612pt" height="378pt" viewBox="0 0 612 378" version="1.1">
<g id="surface421">
<rect x="0" y="0" width="612" height="378" style="fill:rgb(100%,100%,100%);fill-opacity:1;stroke:none;"/>
<rect x="0" y="0" width="612" height="378" style="fill:rgb(0%,26.27451%,0%);fill-opacity:0.262745;stroke:none;"/>
<path style="fill:none;stroke-width:0.75;stroke-linecap:round;stroke-linejoin:round;stroke:rgb(0%,0%,0%);stroke-opacity:1;stroke-miterlimit:10;" d="M 0 378 L 612 378 L 612 0 L 0 0 Z M 0 378 "/>
<path style=" stroke:none;fill-rule:nonzero;fill:rgb(27.058824%,0.392157%,27.058824%);fill-opacity:0.00392157;" d="M 80.496094 377.609375 L 244.679688 377.609375 L 244.679688 376.511719 L 80.496094 376.511719 Z M 80.496094 377.609375 "/>
<path style=" stroke:none;fill-rule:nonzero;fill:rgb(27.45098%,0.392157%,27.45098%);fill-opacity:0.00392157;" d="M 84.089844 377.296875 L 252.269531 377.296875 L 252.269531 375.574219 L 84.089844 375.574219 Z M 84.089844 377.296875 "/>
<path style=" stroke:none;fill-rule:nonzero;fill:rgb(27.843137%,0.784314%,28.235294%);fill-opacity:0.00784314;" d="M 84.488281 376.980469 L 253.46875 376.980469 L 253.46875 374.628906 L 84.488281 374.628906 Z M 84.488281 376.980469 "/>
<path style="fill-rule:nonzero;fill:rgb(28.627451%,0.784314%,28.627451%);fill-opacity:0.00784314;stroke-width:0.0075;stroke-linecap:round;stroke-linejoin:round;stroke:rgb(29.019608%,0.784314%,28.627451%);stroke-opacity:0.00784314;stroke-miterlimit:10;" d="M 282.300781 375.179688 C 282.300781 434.457031 234.25 482.511719 174.972656 482.511719 C 115.695313 482.511719 67.640625 434.457031 67.640625 375.179688 C 67.640625 315.902344 115.695313 267.851563 174.972656 267.851563 C 234.25 267.851563 282.300781 315.902344 282.300781 375.179688 "/>
<path style="fill-rule:nonzero;fill:rgb(28.235294%,1.176471%,28.235294%);fill-opacity:0.0117647;stroke-width:0.75;stroke-linecap:round;stroke-linejoin:round;stroke:rgb(28.627451%,1.176471%,28.627451%);stroke-opacity:0.0117647;stroke-miterlimit:10;" d="M 282.488281 374.242188 C 282.488281 434.0625 233.996094 482.558594 174.171875 482.558594 C 114.351563 482.558594 65.855469 434.0625 65.855469 374.242188 C 65.855469 314.417969 114.351563 265.921875 174.171875 265.921875 C 233.996094 265.921875 282.488281 314.417969 282.488281 374.242188 "/>
<path style="fill-rule:nonzero;fill:rgb(27.45098%,1.568627%,27.45098%);fill-opacity:0.0156863;stroke-width:0.75;stroke-linecap:round;stroke-linejoin:round;stroke:rgb(27.843137%,1.176471%,27.843137%);stroke-opacity:0.0117647;stroke-miterlimit:10;" d="M 277.167969 373.300781 C 277.167969 432.167969 229.445313 479.890625 170.578125 479.890625 C 111.707031 479.890625 63.988281 432.167969 63.988281 373.300781 C 63.988281 314.433594 111.707031 266.710938 170.578125 266.710938 C 229.445313 266.710938 277.167969 314.433594 277.167969 373.300781 "/>
<path style="fill-rule:nonzero;fill:rgb(27.058824%,1.568627%,27.058824%);fill-opacity:0.0156863;stroke-width:0.75;stroke-linecap:round;stroke-linejoin:round;stroke:rgb(27.058824%,1.568627%,27.058824%);stroke-opacity:0.0156863;stroke-miterlimit:10;" d="M 269.625 372.359375 C 269.625 429.046875 223.667969 475.003906 166.980469 475.003906 C 110.292969 475.003906 64.339844 429.046875 64.339844 372.359375 C 64.339844 315.671875 110.292969 269.71875 166.980469 269.71875 C 223.667969 269.71875 269.625 315.671875 269.625 372.359375 "/>
<path style="fill-rule:nonzero;fill:rgb(26.27451%,1.960784%,26.27451%);fill-opacity:0.0196078;stroke-width:0.75;stroke-linecap:round;stroke-linejoin:round;stroke:rgb(26.666667%,1.960784%,26.27451%);stroke-opacity:0.0196078;stroke-miterlimit:10;" d="M 267.4375 371.421875 C 267.4375 427.5625 221.925781 473.074219 165.785156 473.074219 C 109.640625 473.074219 64.128906 427.5625 64.128906 371.421875 C 64.128906 315.277344 109.640625 269.765625 165.785156 269.765625 C 221.925781 269.765625 267.4375 315.277344 267.4375 371.421875 "/>
<path style=" stroke:none;fill-rule:nonzero;fill:rgb(26.27451%,1.960784%,26.27451%);fill-opacity:0.0196078;" d="M 159.792969 370.324219 L 12.175781 279.058594 L 160.191406 370.167969 Z M 159.792969 370.324219 "/>
<path style=" stroke:none;fill-rule:nonzero;fill:rgb(25.882353%,2.352941%,26.27451%);fill-opacity:0.0235294;" d="M 156.59375 369.539063 L 13.441406 279.800781 L 157.394531 369.382813 Z M 156.59375 369.539063 "/>
<path style=" stroke:none;fill-rule:nonzero;fill:rgb(26.666667%,2.352941%,26.27451%);fill-opacity:0.027451;" d="M 160.589844 368.757813 L 14.710938 277.578125 L 162.585938 368.601563 Z M 160.589844 368.757813 "/>
<path style="fill:none;stroke-width:1.992493;stroke-linecap:round;stroke-linejoin:round;stroke:rgb(2.745098%,26.666667%,2.745098%);stroke-opacity:1;stroke-miterlimit:10;" d="M 162.585938 368.132813 L 162.585938 368.128906 L 162.5625 368.09375 L 162.554688 368.070313 L 162.554688 368.035156 L 162.5625 368.011719 L 162.585938 367.976563 L 162.585938 367.972656 "/>
<path style="fill:none;stroke-width:1.977807;stroke-linecap:round;stroke-linejoin:round;stroke:rgb(3.137255%,26.666667%,3.137255%);stroke-opacity:1;stroke-miterlimit:10;" d="M 163.386719 367.347656 L 163.386719 367.34375 L 163.378906 367.335938 L 163.367188 367.320313 L 163.355469 367.285156 L 163.355469 367.253906 L 163.367188 367.21875 L 163.378906 367.203125 L 163.386719 367.195313 L 163.386719 367.191406 "/>
<path style="fill:none;stroke-width:2.012076;stroke-linecap:round;stroke-linejoin:round;stroke:rgb(3.137255%,26.666667%,3.137255%);stroke-opacity:1;stroke-miterlimit:10;" d="M 164.183594 366.5625 L 164.179688 366.554688 L 164.171875 366.546875 L 164.164063 366.535156 L 164.15625 366.519531 L 164.15625 366.511719 L 164.152344 366.503906 L 164.152344 366.46875 L 164.15625 366.460938 L 164.15625 366.453125 L 164.160156 366.445313 L 164.164063 366.433594 L 164.179688 366.417969 L 164.183594 366.410156 L 164.183594 366.40625 "/>
<path style="fill:none;stroke-width:2.00718;stroke-linecap:round;stroke-linejoin:round;stroke:rgb(3.529412%,27.058824%,3.529412%);stroke-opacity:1;stroke-miterlimit:10;" d="M 163.785156 365.78125 L 163.792969 365.773438 L 163.828125 365.734375 L 163.867188 365.6875 L 163.90625 365.648438 L 163.945313 365.617188 L 163.984375 365.589844 L 164.023438 365.570313 L 164.0625 365.554688 L 164.105469 365.539063 L 164.152344 365.527344 L 164.199219 365.519531 L 164.285156 365.519531 L 164.328125 365.523438 L 164.375 365.53125 L 164.421875 365.546875 L 164.472656 365.570313 L 164.53125 365.597656 L 164.574219 365.621094 L 164.585938 365.625 "/>
<path style="fill:none;stroke-width:2.012076;stroke-linecap:round;stroke-linejoin:round;stroke:rgb(3.529412%,27.058824%,3.529412%);stroke-opacity:1;stroke-miterlimit:10;" d="M 164.183594 364.996094 L 164.1875 364.992188 L 164.203125 364.96875 L 164.21875 364.941406 L 164.234375 364.917969 L 164.269531 364.882813 L 164.289063 364.867188 L 164.328125 364.84375 L 164.351563 364.832031 L 164.375 364.824219 L 164.398438 364.820313 L 164.417969 364.816406 L 164.441406 364.8125 L 164.46875 364.8125 L 164.492188 364.816406 L 164.554688 364.832031 L 164.578125 364.839844 L 164.585938 364.839844 "/>
<path style=" stroke:none;fill-rule:nonzero;fill:rgb(27.058824%,3.921569%,27.058824%);fill-opacity:0.0431373;" d="M 27.378906 325.566406 L 26.359375 321.566406 L 32.636719 319.960938 L 33.660156 323.960938 Z M 27.378906 325.566406 "/>
<path style="fill:none;stroke-width:2.119778;stroke-linecap:round;stroke-linejoin:round;stroke:rgb(4.705882%,28.627451%,4.705882%);stroke-opacity:1;stroke-miterlimit:10;" d="M 0 228.710938 L 1.566406 233.40625 L 3.8125 240.128906 L 6.035156 246.769531 L 8.226563 253.300781 L 10.375 259.6875 L 12.472656 265.898438 L 14.511719 271.910156 L 16.480469 277.691406 L 18.378906 283.21875 L 20.195313 288.464844 L 21.925781 293.417969 L 23.5625 298.050781 L 25.101563 302.351563 L 26.542969 306.304688 L 27.875 309.902344 L 29.101563 313.128906 L 30.21875 315.984375 L 31.226563 318.460938 L 32.125 320.554688 L 32.910156 322.273438 L 33.589844 323.617188 L 34.15625 324.589844 L 34.621094 325.203125 L 34.984375 325.464844 L 35.246094 325.386719 L 35.414063 324.988281 L 35.492188 324.28125 L 35.488281 323.28125 L 35.402344 322.011719 L 35.246094 320.492188 L 35.019531 318.746094 L 34.734375 316.789063 L 34.398438 314.65625 L 34.015625 312.363281 L 33.59375 309.9375 L 33.136719 307.402344 L 32.660156 304.785156 L 32.164063 302.109375 L 31.660156 299.402344 L 31.152344 296.683594 L 30.648438 293.980469 L 30.15625 291.3125 L 29.679688 288.699219 L 29.226563 286.167969 L 28.804688 283.734375 L 28.410156 281.417969 L 28.058594 279.230469 L 27.75 277.191406 L 27.488281 275.3125 L 27.273438 273.605469 L 27.117188 272.082031 L 27.011719 270.746094 L 26.964844 269.605469 L 26.976563 268.664063 L 27.046875 267.925781 L 27.175781 267.394531 L 27.363281 267.058594 L 27.609375 266.925781 L 27.914063 266.988281 L 28.269531 267.238281 L 28.683594 267.667969 L 29.144531 268.273438 L 29.652344 269.039063 L 30.203125 269.953125 L 30.796875 271.007813 L 31.425781 272.1875 L 32.089844 273.476563 L 32.777344 274.863281 L 33.492188 276.328125 L 34.222656 277.859375 L 34.96875 279.4375 L 35.722656 281.050781 L 36.484375 282.675781 L 37.242188 284.304688 L 38 285.917969 L 38.746094 287.503906 L 39.480469 289.042969 L 40.199219 290.523438 L 40.894531 291.933594 L 41.566406 293.257813 L 42.210938 294.488281 L 42.824219 295.617188 L 43.40625 296.628906 L 43.953125 297.519531 L 44.460938 298.28125 L 44.929688 298.910156 L 45.355469 299.402344 L 45.746094 299.753906 L 46.089844 299.964844 L 46.394531 300.03125 L 46.660156 299.960938 L 46.882813 299.75 L 47.070313 299.402344 L 47.214844 298.929688 L 47.328125 298.332031 L 47.402344 297.617188 L 47.449219 296.792969 L 47.464844 295.871094 L 47.453125 294.855469 L 47.421875 293.757813 "/>
<path style="fill:none;stroke-width:0.360547;stroke-linecap:round;stroke-linejoin:round;stroke:rgb(29.019608%,4.705882%,29.019608%);stroke-opacity:1;stroke-miterlimit:10;" d="M 184.332031 378 L 184.328125 377.957031 L 184.292969 376.160156 L 184.246094 374.363281 L 184.175781 372.574219 L 184.070313 370.796875 L 183.917969 369.027344 L 183.707031 367.273438 L 183.433594 365.535156 L 183.097656 363.808594 L 182.691406 362.105469 L 182.222656 360.414063 L 181.691406 358.738281 L 181.109375 357.074219 L 180.480469 355.425781 L 179.8125 353.78125 L 179.125 352.148438 L 178.421875 350.515625 L 177.714844 348.882813 L 177.023438 347.246094 L 176.347656 345.605469 L 175.707031 343.957031 L 175.101563 342.300781 L 174.542969 340.632813 L 174.03125 338.953125 L 173.570313 337.261719 L 173.164063 335.554688 L 172.804688 333.835938 L 172.488281 332.109375 L 172.214844 330.371094 L 171.976563 328.621094 L 171.757813 326.871094 L 171.558594 325.113281 L 171.167969 321.597656 L 170.960938 319.839844 L 170.730469 318.089844 L 170.476563 316.347656 L 170.1875 314.613281 L 169.863281 312.886719 L 169.496094 311.171875 L 169.085938 309.464844 L 168.636719 307.769531 L 168.148438 306.085938 L 167.621094 304.40625 L 167.066406 302.738281 L 166.488281 301.074219 L 165.890625 299.417969 L 165.285156 297.761719 L 164.675781 296.105469 L 164.074219 294.445313 L 163.484375 292.785156 L 162.914063 291.121094 L 162.367188 289.449219 L 161.851563 287.769531 L 161.371094 286.082031 L 160.925781 284.386719 L 160.511719 282.679688 L 160.136719 280.96875 L 159.789063 279.246094 L 159.472656 277.519531 L 159.179688 275.785156 L 158.902344 274.046875 "/>
<path style="fill:none;stroke-width:2.384138;stroke-linecap:round;stroke-linejoin:round;stroke:rgb(5.098039%,32.156863%,5.098039%);stroke-opacity:1;stroke-miterlimit:10;" d="M 0 220.695313 L 0.699219 222.625 L 3.617188 230.675781 L 6.484375 238.574219 L 9.289063 246.273438 L 12.023438 253.746094 L 14.667969 260.957031 L 17.21875 267.867188 L 19.664063 274.453125 L 21.992188 280.6875 L 24.203125 286.546875 L 26.285156 292.003906 L 28.230469 297.046875 L 30.035156 301.652344 L 31.695313 305.816406 L 33.210938 309.523438 L 34.578125 312.769531 L 35.792969 315.550781 L 36.859375 317.867188 L 37.773438 319.71875 L 38.542969 321.117188 L 39.167969 322.070313 L 39.652344 322.582031 L 39.996094 322.675781 L 40.214844 322.363281 L 40.304688 321.664063 L 40.277344 320.597656 L 40.140625 319.1875 L 39.898438 317.464844 L 39.566406 315.445313 L 39.144531 313.164063 L 38.648438 310.648438 L 38.085938 307.925781 L 37.46875 305.027344 L 36.804688 301.984375 L 36.101563 298.828125 L 35.371094 295.589844 L 34.625 292.292969 L 33.871094 288.976563 L 33.117188 285.667969 L 32.375 282.390625 L 31.65625 279.175781 L 30.960938 276.046875 L 30.304688 273.03125 L 29.691406 270.148438 L 29.125 267.421875 L 28.617188 264.867188 L 28.171875 262.503906 L 27.792969 260.347656 L 27.484375 258.410156 L 27.25 256.703125 L 27.089844 255.230469 L 27.011719 254.003906 L 27.011719 253.023438 L 27.09375 252.292969 L 27.253906 251.808594 L 27.496094 251.570313 L 27.8125 251.574219 L 28.207031 251.8125 L 28.671875 252.273438 L 29.210938 252.953125 L 29.808594 253.832031 L 30.472656 254.898438 L 31.191406 256.140625 L 31.960938 257.539063 L 32.773438 259.082031 L 33.628906 260.742188 L 34.515625 262.511719 L 35.433594 264.359375 L 36.367188 266.273438 L 37.316406 268.234375 L 38.277344 270.21875 L 39.238281 272.210938 L 40.191406 274.1875 L 41.136719 276.132813 L 42.066406 278.027344 L 42.972656 279.851563 L 43.855469 281.59375 L 44.703125 283.238281 L 45.511719 284.765625 L 46.285156 286.167969 L 47.007813 287.4375 L 47.6875 288.554688 L 48.316406 289.515625 L 48.890625 290.316406 L 49.414063 290.949219 L 49.878906 291.410156 L 50.289063 291.699219 L 50.644531 291.8125 L 50.941406 291.753906 L 51.1875 291.527344 L 51.375 291.132813 L 51.515625 290.582031 L 51.605469 289.875 L 51.644531 289.023438 L 51.644531 288.035156 L 51.601563 286.925781 L 51.523438 285.703125 L 51.414063 284.378906 L 51.273438 282.96875 L 51.113281 281.480469 "/>
<path style="fill:none;stroke-width:0.394737;stroke-linecap:round;stroke-linejoin:round;stroke:rgb(35.686275%,5.490196%,36.078431%);stroke-opacity:1;stroke-miterlimit:10;" d="M 223.800781 378 L 223.652344 377.625 L 222.8125 375.660156 L 221.921875 373.734375 L 220.972656 371.847656 L 219.945313 370.011719 L 218.847656 368.226563 L 217.667969 366.496094 L 216.414063 364.820313 L 215.089844 363.191406 L 213.707031 361.601563 L 212.277344 360.042969 L 210.8125 358.507813 L 209.332031 356.988281 L 207.847656 355.46875 L 206.375 353.941406 L 204.929688 352.394531 L 203.519531 350.824219 L 202.160156 349.21875 L 200.851563 347.578125 L 199.605469 345.894531 L 198.417969 344.167969 L 197.292969 342.40625 L 196.214844 340.601563 L 195.1875 338.769531 L 194.195313 336.910156 L 193.230469 335.035156 L 192.277344 333.148438 L 191.328125 331.261719 L 190.367188 329.382813 L 189.386719 327.515625 L 188.375 325.671875 L 187.320313 323.855469 L 186.222656 322.070313 L 185.078125 320.316406 L 183.886719 318.597656 L 182.644531 316.910156 L 181.359375 315.253906 L 180.035156 313.621094 L 178.683594 312.011719 L 177.3125 310.414063 L 175.929688 308.824219 L 174.546875 307.238281 L 173.171875 305.640625 L 171.816406 304.03125 L 170.488281 302.40625 L 169.195313 300.753906 L 167.9375 299.078125 L 166.722656 297.375 L 165.546875 295.640625 L 164.414063 293.882813 L 163.316406 292.097656 L 162.246094 290.289063 L 161.203125 288.464844 L 160.179688 286.632813 L 158.140625 282.953125 L 157.109375 281.117188 L 156.066406 279.296875 L 154.996094 277.492188 L 153.894531 275.707031 L 152.761719 273.945313 L 151.59375 272.210938 L 150.390625 270.496094 L 149.152344 268.808594 "/>
<path style="fill:none;stroke-width:2.70235;stroke-linecap:round;stroke-linejoin:round;stroke:rgb(5.490196%,35.686275%,5.490196%);stroke-opacity:1;stroke-miterlimit:10;" d="M 0 197.5625 L 2.5625 204.164063 L 6.53125 214.355469 L 10.375 224.195313 L 14.078125 233.640625 L 17.625 242.648438 L 21.003906 251.183594 L 24.203125 259.210938 L 27.210938 266.699219 L 30.019531 273.625 L 32.621094 279.964844 L 35.007813 285.703125 L 37.175781 290.828125 L 39.121094 295.324219 L 40.84375 299.191406 L 42.34375 302.429688 L 43.621094 305.039063 L 44.675781 307.027344 L 45.515625 308.410156 L 46.144531 309.195313 L 46.570313 309.410156 L 46.800781 309.066406 L 46.839844 308.199219 L 46.707031 306.828125 L 46.402344 304.992188 L 45.945313 302.71875 L 45.347656 300.046875 L 44.621094 297.011719 L 43.777344 293.652344 L 42.832031 290.007813 L 41.800781 286.121094 L 40.699219 282.03125 L 39.542969 277.78125 L 38.339844 273.414063 L 37.113281 268.96875 L 35.871094 264.488281 L 34.632813 260.007813 L 33.40625 255.570313 L 32.210938 251.214844 L 31.054688 246.96875 L 29.949219 242.871094 L 28.90625 238.953125 L 27.941406 235.238281 L 27.054688 231.761719 L 26.257813 228.535156 L 25.5625 225.589844 L 24.972656 222.9375 L 24.492188 220.597656 L 24.121094 218.574219 L 23.871094 216.882813 L 23.738281 215.523438 L 23.726563 214.507813 L 23.835938 213.824219 L 24.0625 213.476563 L 24.402344 213.453125 L 24.859375 213.75 L 25.425781 214.355469 L 26.09375 215.253906 L 26.859375 216.425781 L 27.71875 217.859375 L 28.660156 219.53125 L 29.679688 221.417969 L 30.769531 223.5 L 31.917969 225.753906 L 33.117188 228.148438 L 34.359375 230.660156 L 35.632813 233.261719 L 36.929688 235.929688 L 38.242188 238.636719 L 39.554688 241.351563 L 40.863281 244.054688 L 42.160156 246.714844 L 43.429688 249.308594 L 44.667969 251.8125 L 45.867188 254.207031 L 47.023438 256.46875 L 48.121094 258.582031 L 49.160156 260.523438 L 50.132813 262.28125 L 51.039063 263.839844 L 51.867188 265.191406 L 52.617188 266.320313 L 53.289063 267.222656 L 53.875 267.894531 L 54.382813 268.332031 L 54.800781 268.535156 L 55.140625 268.5 L 55.398438 268.234375 L 55.574219 267.746094 L 55.671875 267.039063 L 55.695313 266.121094 L 55.648438 265.007813 L 55.539063 263.707031 L 55.367188 262.238281 L 55.140625 260.613281 L 54.863281 258.847656 L 54.542969 256.964844 L 54.1875 254.976563 L 53.804688 252.90625 L 53.394531 250.769531 "/>
<path style="fill:none;stroke-width:2.565274;stroke-linecap:round;stroke-linejoin:round;stroke:rgb(5.882353%,34.117647%,5.882353%);stroke-opacity:1;stroke-miterlimit:10;" d="M 138.195313 364.171875 L 206.648438 358.242188 "/>
<path style="fill:none;stroke-width:2.565274;stroke-linecap:round;stroke-linejoin:round;stroke:rgb(5.882353%,34.117647%,5.882353%);stroke-opacity:1;stroke-miterlimit:10;" d="M 138.195313 358.242188 L 206.648438 364.171875 "/>
<path style="fill:none;stroke-width:2.565274;stroke-linecap:round;stroke-linejoin:round;stroke:rgb(5.882353%,34.117647%,5.882353%);stroke-opacity:1;stroke-miterlimit:10;" d="M 166.632813 365.113281 L 235.089844 358.578125 "/>
<path style="fill:none;stroke-width:2.565274;stroke-linecap:round;stroke-linejoin:round;stroke:rgb(5.882353%,34.117647%,5.882353%);stroke-opacity:1;stroke-miterlimit:10;" d="M 166.632813 358.578125 L 235.089844 365.113281 "/>
<path style="fill:none;stroke-width:2.565274;stroke-linecap:round;stroke-linejoin:round;stroke:rgb(5.882353%,34.117647%,5.882353%);stroke-opacity:1;stroke-miterlimit:10;" d="M 189.105469 365.449219 L 257.558594 359.511719 "/>
<path style="fill:none;stroke-width:2.565274;stroke-linecap:round;stroke-linejoin:round;stroke:rgb(5.882353%,34.117647%,5.882353%);stroke-opacity:1;stroke-miterlimit:10;" d="M 189.105469 359.511719 L 257.558594 365.449219 "/>
<path style="fill:none;stroke-width:2.565274;stroke-linecap:round;stroke-linejoin:round;stroke:rgb(5.882353%,34.117647%,5.882353%);stroke-opacity:1;stroke-miterlimit:10;" d="M 217.585938 366.386719 L 286.039063 359.851563 "/>
<path style="fill:none;stroke-width:2.565274;stroke-linecap:round;stroke-linejoin:round;stroke:rgb(5.882353%,34.117647%,5.882353%);stroke-opacity:1;stroke-miterlimit:10;" d="M 217.585938 359.851563 L 286.039063 366.386719 "/>
<path style="fill:none;stroke-width:2.565274;stroke-linecap:round;stroke-linejoin:round;stroke:rgb(5.882353%,34.117647%,5.882353%);stroke-opacity:1;stroke-miterlimit:10;" d="M 240.082031 366.722656 L 308.535156 360.78125 "/>
<path style="fill:none;stroke-width:2.565274;stroke-linecap:round;stroke-linejoin:round;stroke:rgb(5.882353%,34.117647%,5.882353%);stroke-opacity:1;stroke-miterlimit:10;" d="M 240.082031 360.78125 L 308.535156 366.722656 "/>
</g>
</svg>
